<svg height="512pt" viewBox="0 0 512 512" width="512pt" xmlns="http://www.w3.org/2000/svg"><path d="m512 256c0 141.386719-114.613281 256-256 256s-256-114.613281-256-256 114.613281-256 256-256 256 114.613281 256 256zm0 0" fill="#3fc37c"/><path d="m256.003906 15.152344c-122.160156 0-221.191406 81.910156-221.191406 182.949218 0 59.730469 34.609375 112.765626 88.140625 146.15625 3.460937 20.0625 3.808594 45.660157-7.058594 71.109376-6.886719 16.125 9.851563 32.09375 25.578125 24.335937 29.652344-14.636719 62.335938-34.945313 83.421875-60.457031 10.167969 1.183594 20.550781 1.808594 31.109375 1.808594 122.160156 0 221.1875-81.910157 221.1875-182.953126 0-101.039062-99.03125-182.949218-221.1875-182.949218zm0 0" fill="#17a388"/><path d="m290.8125 0c-122.160156 0-221.191406 81.910156-221.191406 182.953125 0 59.726563 34.609375 112.765625 88.140625 146.15625 3.457031 20.058594 3.808593 45.65625-7.058594 71.109375-6.886719 16.125 9.851563 32.089844 25.574219 24.332031 29.65625-14.632812 62.339844-34.945312 83.425781-60.457031 10.164063 1.183594 20.546875 1.808594 31.109375 1.808594 122.15625 0 221.1875-81.910156 221.1875-182.949219 0-101.042969-99.03125-182.953125-221.1875-182.953125zm0 0" fill="#fecf32"/><path d="m291.664062 56.503906-9.292968 51.730469h44.453125l10.910156-60.621094c1.214844-6.871093 11.316406-10.910156 21.421875-10.910156 12.121094 0 23.839844 5.65625 24.246094 19.800781l-9.699219 51.730469h31.523437c7.675782 0 15.355469 8.082031 15.355469 19.398437 0 11.316407-7.273437 19.398438-14.953125 19.398438h-38.796875l-9.296875 49.707031h31.523438c7.679687 0 15.761718 8.484375 15.761718 19.398438 0 11.71875-8.082031 19.800781-15.359374 19.800781h-39.199219l-11.71875 64.660156c-1.210938 7.273438-11.71875 12.125-20.609375 12.125-11.316406 0-25.867188-6.464844-25.867188-19.398437l10.105469-57.386719h-43.648437l-11.71875 64.660156c-1.210938 7.273438-12.125 12.125-20.207032 12.125-11.3125 0-25.457031-6.464844-25.457031-19.398437l9.695313-57.386719h-31.519532c-8.890625 0-14.550781-7.675781-14.550781-18.992188 0-11.316406 6.0625-20.207031 14.550781-20.207031h39.199219l8.890625-49.707031h-31.519531c-9.296875 0-14.953125-7.277344-14.953125-18.996094 0-11.316406 5.660156-19.800781 14.550781-19.800781h39.601563l10.914062-60.621094c1.617188-6.871093 11.71875-10.910156 21.820312-10.910156 12.125 0 23.84375 5.65625 23.84375 19.800781zm-25.457031 140.234375h43.644531l9.296876-49.707031h-44.050782zm0 0" fill="#304e87"/></svg>